<?xml version="1.0" encoding="UTF-8"?>
<svg version="1.1" xmlns="http://www.w3.org/2000/svg" width="500" height="500">
<path d="M0 0 C7.41918782 -0.33386345 13.23003602 -0.19337923 20 3 C20.495 3.495 20.495 3.495 21 4 C23.16472866 4.24680286 25.33192322 4.47208211 27.5 4.6875 C35.17074188 5.72746806 40.71408879 8.08644282 45.73828125 14.0703125 C47 16 47 16 47 18 C47.886875 18.20625 48.77375 18.4125 49.6875 18.625 C53.95591395 20.39679447 55.25004006 22.33338675 58 26 C58.99 26.99 58.99 26.99 60 28 C60 29.32 60 30.64 60 32 C60.66 32 61.32 32 62 32 C62 35.96 62 39.92 62 44 C62.66 44 63.32 44 64 44 C63.67 45.65 63.34 47.3 63 49 C63.66 49.33 64.32 49.66 65 50 C65 53.63 65 57.26 65 61 C64.34 61 63.68 61 63 61 C63.3403125 61.8971875 63.3403125 61.8971875 63.6875 62.8125 C63.790625 63.534375 63.89375 64.25625 64 65 C63.02351983 66.02297922 62.01868662 67.01904252 61 68 C59.74458379 71.27803121 58.78890849 74.58139653 58 78 C57.34 78 56.68 78 56 78 C55.7525 78.7425 55.505 79.485 55.25 80.25 C53.10621494 84.96632714 49.82496664 87.14900389 45.5625 89.875 C40.55560306 93.13607103 35.95040685 97.14877944 34 103 C34 104.19625 34 105.3925 34 106.625 C34 107.73875 34 108.8525 34 110 C33.34 110.66 32.68 111.32 32 112 C28.37 112 24.74 112 21 112 C21 102.43 21 92.86 21 83 C20.34 83 19.68 83 19 83 C19 92.57 19 102.14 19 112 C16.36 112 13.72 112 11 112 C9.82709008 109.65418016 9.9118337 108.35328092 9.97265625 105.74609375 C9.98490234 104.89080078 9.99714844 104.03550781 10.00976562 103.15429688 C10.0443929 101.3703511 10.08331807 99.58648255 10.12695312 97.80273438 C10.22841667 89.79905094 9.52127799 82.78191698 5 76 C5 75.34 5 74.68 5 74 C4.14535156 73.58814453 4.14535156 73.58814453 3.2734375 73.16796875 C1 72 1 72 -1.1484375 70.67578125 C-1.88320312 70.22589844 -2.61796875 69.77601563 -3.375 69.3125 C-4.10460937 68.85488281 -4.83421875 68.39726562 -5.5859375 67.92578125 C-8.76304523 66.70737586 -10.69685686 67.30787339 -14 68 C-19.67308423 68.23666854 -25.26345974 68.28008714 -30.875 67.375 C-34.07953638 66.78107664 -34.07953638 66.78107664 -37.375 68 C-43.99362169 69.82582667 -50.15398536 68.65955597 -56.14453125 65.359375 C-61.59826697 61.36379598 -64.96970882 55.6396543 -66 49 C-66.18825705 41.83446616 -64.59067838 36.53694635 -60 31 C-57.70985099 28.92288811 -55.74847086 27.37423543 -53 26 C-52.566875 24.9275 -52.13375 23.855 -51.6875 22.75 C-49.16811937 16.65110333 -44.85318117 13.57478526 -39.05078125 10.83203125 C-37 10 -37 10 -33.3125 9 C-29.70892922 7.91212958 -27.81946828 6.43845905 -25 4 C-21.38295091 1.63564452 -18.18902896 1.76332353 -13.9375 1.8125 C-12.70902344 1.81894531 -11.48054688 1.82539063 -10.21484375 1.83203125 C-7 2 -7 2 -4 3 C-1.85744207 2.61067144 -1.85744207 2.61067144 0 2 C0 1.34 0 0.68 0 0 Z M1 15 C0.20046862 18.28696233 -0.09658936 19.71023192 1 23 C-4.77102469 24.49619159 -10.03319802 25.58689856 -16 25 C-19.3125 23 -19.3125 23 -22 21 C-22.99 21 -23.98 21 -25 21 C-23.99814595 23.23490519 -23.1888327 24.82569289 -21.375 26.5 C-20 28 -20 28 -20 32 C-19.01 32 -18.02 32 -17 32 C-17 30.68 -17 29.36 -17 28 C-16.13117188 28.02320313 -15.26234375 28.04640625 -14.3671875 28.0703125 C-12.63855469 28.09738281 -12.63855469 28.09738281 -10.875 28.125 C-9.73804688 28.14820313 -8.60109375 28.17140625 -7.4296875 28.1953125 C-3.94242233 27.99672109 -1.2446138 27.2524801 2 26 C3.88857838 27.98070415 5.53785158 29.71471617 7 32 C6.92801829 34.95125015 6.06293238 36.8482219 4.9375 39.5625 C3.76068061 42.18696827 3.76068061 42.18696827 4 46 C2.39125 45.690625 2.39125 45.690625 0.75 45.375 C-2.87619096 45.0123809 -4.08291076 45.01637931 -7 47 C-4.24921116 47.91692961 -2.64051087 48.10886083 0.1875 48.0625 C1.445625 48.041875 2.70375 48.02125 4 48 C4.12375 49.2684375 4.12375 49.2684375 4.25 50.5625 C5.15733853 54.72113491 6.76541273 57.39582699 9 61 C9.66 61 10.32 61 11 61 C10.50265927 57.81701935 9.64337835 55.21569924 8.3125 52.3125 C5.978493 46.38164162 8.06641345 40.80075964 10 35 C10.928125 35.45375 11.85625 35.9075 12.8125 36.375 C16.04075608 37.78572166 19.08420207 38.41005318 22.5625 38.9375 C27.23944023 39.72661337 30.39133936 40.75220542 34 44 C36.41096514 47.77717872 37.39499995 50.5233339 37 55 C34.36 55 31.72 55 29 55 C29 55.66 29 56.32 29 57 C31.31 57.66 33.62 58.32 36 59 C33.41850379 65.39762105 30.61874394 68.38149121 25.06640625 72.40625 C22.57099228 74.3308793 21.11963558 76.0409631 20 79 C20.20643199 81.25328412 20.20643199 81.25328412 21 83 C23.05384283 81.15154145 24.37117401 79.41849406 25.875 77.0625 C28.03314865 73.95222694 29.77061813 71.96913529 33 70 C35.5 69.9375 35.5 69.9375 38 71 C39.68662458 72.64646685 41.35511706 74.31183067 43 76 C43.99 76 44.98 76 46 76 C44.63842622 70.70499087 41.39656045 68.76254467 37 66 C37.495 65.113125 37.99 64.22625 38.5 63.3125 C39.98246077 60.03873246 40.18344337 58.48542408 40 55 C40.2784375 53.948125 40.2784375 53.948125 40.5625 52.875 C41.22123618 50.79116759 41.22123618 50.79116759 40 48 C40.70125 47.938125 41.4025 47.87625 42.125 47.8125 C46.08915867 46.69219429 48.02216113 44.83933474 51 42 C51 41.34 51 40.68 51 40 C48.50386066 40.44573917 47.05155602 40.96133298 45 42.5 C42.94844398 44.03866702 41.49613934 44.55426083 39 45 C38.319375 43.9171875 38.319375 43.9171875 37.625 42.8125 C34.5126956 39.47788814 31.43887026 38.00561379 27.33984375 36.11328125 C25 35 25 35 22 33 C22.433125 32.20335937 22.433125 32.20335937 22.875 31.390625 C23.24625 30.68421875 23.6175 29.9778125 24 29.25 C24.37125 28.55390625 24.7425 27.8578125 25.125 27.140625 C26.25224649 24.76832243 26.25224649 24.76832243 26 21 C20.9977458 25.08078632 19.92065781 28.69280693 19 35 C12.27435589 32.42758484 8.08133209 30.27220797 4.8125 23.5625 C3.91281241 20.72502377 3.41097807 17.94534283 3 15 C2.34 15 1.68 15 1 15 Z M-40 33 C-40.33 33.99 -40.66 34.98 -41 36 C-38.34771188 37.07525194 -35.71631546 38.09456151 -33 39 C-32.67 39.99 -32.34 40.98 -32 42 C-35.3 42.66 -38.6 43.32 -42 44 C-40.04086773 46.38830669 -40.04086773 46.38830669 -36.375 46.3125 C-31.17181422 46.15196614 -26.39790328 45.07276386 -22.38671875 41.60546875 C-19.61344989 38.51971889 -19 37.23790522 -19 33 C-19.66 33 -20.32 33 -21 33 C-21.61875 33.928125 -22.2375 34.85625 -22.875 35.8125 C-24.77788528 38.66682792 -26.16675957 40.17863115 -29 42 C-29.3403125 41.13375 -29.3403125 41.13375 -29.6875 40.25 C-31.73758279 36.73557236 -34.43333277 34.50810829 -38.3125 33.25 C-39.1478125 33.12625 -39.1478125 33.12625 -40 33 Z M-44 45 C-47.05763218 46.78831775 -47.05763218 46.78831775 -50 49 C-50 49.99 -50 50.98 -50 52 C-46.7 50.35 -43.4 48.7 -40 47 C-41.32 46.34 -42.64 45.68 -44 45 Z M-10 47 C-10.33 47.99 -10.66 48.98 -11 50 C-10.01 50 -9.02 50 -8 50 C-8.33 49.01 -8.66 48.02 -9 47 C-9.33 47 -9.66 47 -10 47 Z M26 55 C25.01 55.495 25.01 55.495 24 56 C24 56.66 24 57.32 24 58 C25.32 57.67 26.64 57.34 28 57 C27.34 56.34 26.68 55.68 26 55 Z " fill="#07316A" transform="translate(251,166)"/>
<path d="M0 0 C0.763125 0.061875 1.52625 0.12375 2.3125 0.1875 C3.70445915 4.36337745 2.13573219 6.32224776 0.3125 10.1875 C1.67375 10.31125 1.67375 10.31125 3.0625 10.4375 C6.89222775 11.32128333 7.85655486 12.1769866 10.3125 15.1875 C11.17875 16.156875 12.045 17.12625 12.9375 18.125 C18.23728012 25.72406934 18.47041177 38.30508062 16.96484375 47.25390625 C16.10154663 50.72885851 15.2149155 53.07993688 12.3125 55.1875 C8.94921875 55.83984375 8.94921875 55.83984375 5 56.125 C3.70449219 56.23714844 2.40898437 56.34929687 1.07421875 56.46484375 C-5.88542974 55.95172325 -10.44215751 50.85094373 -15.375 46.3125 C-15.94283203 45.80847656 -16.51066406 45.30445313 -17.09570312 44.78515625 C-21.60058329 40.65524266 -24.31547738 36.83816118 -25.1875 30.625 C-24.46708823 25.6721691 -21.8079069 23.87282341 -18.03125 20.87109375 C-16.16639319 18.53460164 -16.38523506 16.94563334 -16.5 14 C-16.54060547 12.64841797 -16.54060547 12.64841797 -16.58203125 11.26953125 C-16.63423828 10.23892578 -16.63423828 10.23892578 -16.6875 9.1875 C-15.92824219 8.78917969 -15.16898437 8.39085937 -14.38671875 7.98046875 C-13.39285156 7.45066406 -12.39898437 6.92085938 -11.375 6.375 C-10.38886719 5.85292969 -9.40273438 5.33085937 -8.38671875 4.79296875 C-5.71577326 3.35429382 -5.71577326 3.35429382 -4 1.5 C-2.6875 0.1875 -2.6875 0.1875 0 0 Z " fill="#EFEEF0" transform="translate(359.6875,422.8125)"/>
<path d="M0 0 C0.91007813 0.00902344 1.82015625 0.01804687 2.7578125 0.02734375 C3.45648438 0.03894531 4.15515625 0.05054688 4.875 0.0625 C6.12609593 4.18432767 5.86314266 8.04351718 5.71484375 12.30859375 C5.88814015 15.28844646 6.69102907 17.34443444 7.875 20.0625 C8 22.5 8 22.5 6.875 25.0625 C4.43928944 27.45382404 1.94310675 29.5483694 -1.125 31.0625 C-3.38671875 30.7265625 -3.38671875 30.7265625 -5.125 30.0625 C-5.18107422 28.97582031 -5.18107422 28.97582031 -5.23828125 27.8671875 C-5.79344608 18.78055716 -5.79344608 18.78055716 -10.875 11.5 C-12.125 10.0625 -12.125 10.0625 -12.0625 7.625 C-9.85544288 1.59237722 -6.01265323 -0.0770853 0 0 Z " fill="#EEEDF1" transform="translate(198.125,432.9375)"/>
<path d="M0 0 C0.66 0.33 1.32 0.66 2 1 C2 1.66 2 2.32 2 3 C1.34 3 0.68 3 0 3 C-0.2475 3.7425 -0.495 4.485 -0.75 5.25 C-2.89378506 9.96632714 -6.17503336 12.14900389 -10.4375 14.875 C-15.44439694 18.13607103 -20.04959315 22.14877944 -22 28 C-22 29.19625 -22 30.3925 -22 31.625 C-22 32.73875 -22 33.8525 -22 35 C-24 37 -24 37 -26.6015625 37.1953125 C-28.09816406 37.16050781 -28.09816406 37.16050781 -29.625 37.125 C-30.62789063 37.10695313 -31.63078125 37.08890625 -32.6640625 37.0703125 C-33.82035156 37.03550781 -33.82035156 37.03550781 -35 37 C-35.0744389 32.9615943 -35.12873729 28.92345707 -35.16479492 24.88452148 C-35.17983432 23.51205483 -35.20027133 22.13963586 -35.22631836 20.76733398 C-35.26291221 18.78911344 -35.27816698 16.81053486 -35.29296875 14.83203125 C-35.31653442 13.04889526 -35.31653442 13.04889526 -35.34057617 11.22973633 C-34.97040559 7.71935169 -34.03323257 5.84464948 -32 3 C-31.34 3.33 -30.68 3.66 -30 4 C-30.33 4.66 -30.66 5.32 -31 6 C-31.15469367 8.17674783 -31.25002106 10.3578348 -31.31640625 12.5390625 C-31.35830078 13.84101563 -31.40019531 15.14296875 -31.44335938 16.484375 C-31.48317299 17.86458045 -31.52288522 19.24478883 -31.5625 20.625 C-31.60569407 22.01303415 -31.64930865 23.40105528 -31.69335938 24.7890625 C-31.79972 28.19260256 -31.90174714 31.59621778 -32 35 C-30.32251322 34.72627207 -28.65459228 34.3888615 -27 34 C-25.89497634 32.37007318 -25.89497634 32.37007318 -25.4375 30.3125 C-24.1867198 26.36229585 -22.45301706 23.37289846 -20 20 C-19.46375 19.21625 -18.9275 18.4325 -18.375 17.625 C-17.694375 16.820625 -17.694375 16.820625 -17 16 C-16.34 16 -15.68 16 -15 16 C-14.67 15.01 -14.34 14.02 -14 13 C-12.03533587 11.93224776 -10.03144641 10.93446535 -8 10 C-4.67098753 7.78065836 -4.24976756 6.65316671 -3 3 C-2.34 3 -1.68 3 -1 3 C-0.67 2.01 -0.34 1.02 0 0 Z " fill="#032756" transform="translate(307,241)"/>
<path d="M0 0 C0.721875 0.268125 1.44375 0.53625 2.1875 0.8125 C1.62747584 4.34909092 0.50975676 5.76809692 -2.25 8 C-2.86746094 8.50917969 -3.48492187 9.01835937 -4.12109375 9.54296875 C-5.8125 10.8125 -5.8125 10.8125 -7.8125 11.8125 C-8.07527955 13.78334661 -8.33161588 15.75574415 -8.52734375 17.734375 C-8.8795056 20.30081477 -9.71648302 22.47433045 -10.8125 24.8125 C-7.5125 25.1425 -4.2125 25.4725 -0.8125 25.8125 C-2.8125 29.8125 -2.8125 29.8125 -5.8125 31.8125 C-5.8125 32.4725 -5.8125 33.1325 -5.8125 33.8125 C-4.8225 33.8125 -3.8325 33.8125 -2.8125 33.8125 C-2.4825 35.4625 -2.1525 37.1125 -1.8125 38.8125 C-4.1875 39.875 -4.1875 39.875 -6.8125 40.8125 C-8.8125 39.8125 -8.8125 39.8125 -9.8125 36.8125 C-10.4725 36.4825 -11.1325 36.1525 -11.8125 35.8125 C-11.8125 35.1525 -11.8125 34.4925 -11.8125 33.8125 C-13.25260481 34.06912245 -14.6895687 34.34340821 -16.125 34.625 C-16.92550781 34.77582031 -17.72601563 34.92664063 -18.55078125 35.08203125 C-21.04695587 35.88822236 -22.13672106 36.83302002 -23.8125 38.8125 C-24.4725 38.4825 -25.1325 38.1525 -25.8125 37.8125 C-24.60098458 36.60699706 -23.36747111 35.42357253 -22.125 34.25 C-21.44050781 33.58871094 -20.75601562 32.92742187 -20.05078125 32.24609375 C-17.8125 30.8125 -17.8125 30.8125 -15.2109375 30.9765625 C-11.3146173 32.33456335 -8.68975992 34.93524008 -5.8125 37.8125 C-6.49982957 35.06318173 -7.16810222 33.27831179 -9.50390625 31.58984375 C-11.24366325 30.60925344 -13.0262611 29.70561945 -14.8125 28.8125 C-14.3175 27.801875 -13.8225 26.79125 -13.3125 25.75 C-11.69041845 22.0207284 -11.65294398 18.88117848 -11.8125 14.8125 C-11.4825 14.1525 -11.1525 13.4925 -10.8125 12.8125 C-10.8125 11.8225 -10.8125 10.8325 -10.8125 9.8125 C-10.26980469 9.57015625 -9.72710937 9.3278125 -9.16796875 9.078125 C-3.62164453 6.50357324 -3.62164453 6.50357324 0.1875 1.8125 C-0.575625 2.3075 -1.33875 2.8025 -2.125 3.3125 C-4.8125 4.8125 -4.8125 4.8125 -7.8125 4.8125 C-3.50480769 -0.23365385 -3.50480769 -0.23365385 0 0 Z " fill="#0A2C5D" transform="translate(301.8125,204.1875)"/>
<path d="M0 0 C0.928125 0.28875 1.85625 0.5775 2.8125 0.875 C6.04059635 1.81980869 9.23938557 2.36654533 12.5625 2.875 C18.16698321 3.85905192 21.70512304 5.78425673 25.8125 9.75 C27.58155092 13.10188595 27.68613125 16.23357502 28 20 C24.52176885 21.15941038 22.54104422 20.70820884 19 20 C19 20.66 19 21.32 19 22 C20.134375 22.12375 21.26875 22.2475 22.4375 22.375 C24.2009375 22.684375 24.2009375 22.684375 26 23 C26.33 23.66 26.66 24.32 27 25 C26.00390625 26.9453125 26.00390625 26.9453125 24.5625 29.125 C24.08941406 29.84945312 23.61632812 30.57390625 23.12890625 31.3203125 C22.57009766 32.15175781 22.57009766 32.15175781 22 33 C21.67 32.01 21.34 31.02 21 30 C21.33 29.34 21.66 28.68 22 28 C18.81237635 25.87491756 16.73487777 25.4979837 13 25 C13.33 23.02 13.66 21.04 14 19 C16.97 18.01 19.94 17.02 23 16 C23.50169415 13.16926564 23.50169415 13.16926564 23 10 C18.81585974 5.9259687 14.9526389 5.61590718 9.4140625 5.28125 C6.18843531 4.90544877 3.75628043 3.668275 1 2 C0.67 2.99 0.34 3.98 0 5 C-0.66 5 -1.32 5 -2 5 C-1.34 3.35 -0.68 1.7 0 0 Z M16 20 C15.01 20.495 15.01 20.495 14 21 C14 21.66 14 22.32 14 23 C15.32 22.67 16.64 22.34 18 22 C17.34 21.34 16.68 20.68 16 20 Z " fill="#0B2650" transform="translate(261,201)"/>
<path d="M0 0 C1 3 1 3 0.1171875 5.05859375 C-0.29273438 5.84363281 -0.70265625 6.62867188 -1.125 7.4375 C-3.53819477 13.04073992 -2.64169438 16.8994244 -0.9921875 22.62890625 C-0.23929967 25.15221222 -0.23929967 25.15221222 2 26 C2.33 26.99 2.66 27.98 3 29 C3.99 29 4.98 29 6 29 C6 29.66 6 30.32 6 31 C12.79338139 33.29635427 18.91496955 35.36167682 26 33 C27.54543256 32.93003927 29.09376471 32.91560186 30.640625 32.9375 C31.54683594 32.94523437 32.45304687 32.95296875 33.38671875 32.9609375 C35.27995084 32.98676604 37.17318008 33.01280416 39.06640625 33.0390625 C44.16953916 33.08237056 48.97168968 32.88898304 54 32 C47.75737257 36.95104934 41.69000306 36.26067807 34 36 C32.72125 35.79375 31.4425 35.5875 30.125 35.375 C26.92046362 34.78107664 26.92046362 34.78107664 23.625 36 C17.00637831 37.82582667 10.84601464 36.65955597 4.85546875 33.359375 C-0.59826697 29.36379598 -3.96970882 23.6396543 -5 17 C-5.07651622 10.24471113 -3.76473241 5.58637713 0 0 Z " fill="#0D2950" transform="translate(190,198)"/>
<path d="M0 0 C0.12375 0.556875 0.2475 1.11375 0.375 1.6875 C0.96196182 4.06961681 0.96196182 4.06961681 2.0625 6.5 C3 9 3 9 3 13 C0.75 13.6875 0.75 13.6875 -2 14 C-3.36538653 13.04422943 -4.69481525 12.03647024 -6 11 C-8.33183607 10.32811503 -10.66501142 9.66084583 -13 9 C-13.33 8.34 -13.66 7.68 -14 7 C-9.82547171 2.51624739 -6.36062509 -0.54519644 0 0 Z " fill="#EEECF0" transform="translate(358,383)"/>
<path d="M0 0 C3 3 3 3 3.1875 5.6875 C3.0946875 6.8321875 3.0946875 6.8321875 3 8 C2.34 8 1.68 8 1 8 C0.7525 8.7425 0.505 9.485 0.25 10.25 C-1.10465039 13.23023087 -2.5101541 14.89919252 -5 17 C-5.66 17 -6.32 17 -7 17 C-7.556875 16.236875 -8.11375 15.47375 -8.6875 14.6875 C-11.58962301 11.31476244 -13.90914461 10.62090496 -18 9 C-18.33 8.34 -18.66 7.68 -19 7 C-17.7625 7.185625 -16.525 7.37125 -15.25 7.5625 C-12.15555929 7.96707352 -10.01651604 7.81213893 -7 7 C-6.34 7.66 -5.68 8.32 -5 9 C-3.68 9 -2.36 9 -1 9 C-0.67 6.03 -0.34 3.06 0 0 Z " fill="#092957" transform="translate(229,191)"/>
<path d="M0 0 C4.41343086 0.09682115 10.14362301 1.08112301 13.375 4.3125 C15.53972866 4.55930286 17.70692322 4.78458211 19.875 5 C27.54574188 6.03996806 33.08908879 8.39894282 38.11328125 14.3828125 C39.375 16.3125 39.375 16.3125 39.375 18.3125 C40.035 18.6425 40.695 18.9725 41.375 19.3125 C38.375 19.3125 38.375 19.3125 35.8125 16.9375 C35.008125 16.07125 34.20375 15.205 33.375 14.3125 C28.89930326 9.83680326 25.43037434 8.30822361 19.125 8 C14.67364392 7.64505527 12.09423174 6.77146559 8.34375 4.234375 C4.06622928 2.23140895 -0.96986009 2.46537816 -5.625 2.3125 C-3.625 0.3125 -3.625 0.3125 0 0 Z " fill="#0B224C" transform="translate(258.625,165.6875)"/>
<path d="M0 0 C3.5 3.5 3.5 3.5 7 7 C6.56425685 11.79317468 4.55285209 16.47647435 3 21 C-0.3 21 -3.6 21 -7 21 C-5 19 -5 19 -1.375 18.875 C0.295625 18.936875 0.295625 18.936875 2 19 C2.185625 17.39125 2.185625 17.39125 2.375 15.75 C2.89643936 12.62136385 3.40088254 10.66519576 5 8 C4.34 8 3.68 8 3 8 C2.67 6.68 2.34 5.36 2 4 C-2.64586892 4.48484276 -2.64586892 4.48484276 -7 6 C-8.9453125 5.66015625 -8.9453125 5.66015625 -11.125 5.0625 C-11.84945312 4.86785156 -12.57390625 4.67320312 -13.3203125 4.47265625 C-13.87460938 4.31667969 -14.42890625 4.16070312 -15 4 C-15.66 5.32 -16.32 6.64 -17 8 C-17.66 7.67 -18.32 7.34 -19 7 C-18.67 5.68 -18.34 4.36 -18 3 C-17.11957031 2.95101562 -16.23914063 2.90203125 -15.33203125 2.8515625 C-14.17058594 2.77679688 -13.00914062 2.70203125 -11.8125 2.625 C-10.66394531 2.55539063 -9.51539063 2.48578125 -8.33203125 2.4140625 C-5.20040883 2.02490426 -2.84714191 1.3190149 0 0 Z " fill="#0F264F" transform="translate(252,191)"/>
<path d="M0 0 C0.66 0.33 1.32 0.66 2 1 C2 1.66 2 2.32 2 3 C1.34 3 0.68 3 0 3 C-0.2475 3.7425 -0.495 4.485 -0.75 5.25 C-2.89378506 9.96632714 -6.17503336 12.14900389 -10.4375 14.875 C-15.44439694 18.13607103 -20.04959315 22.14877944 -22 28 C-22.0777346 30.33203812 -22.08967728 32.66839059 -22 35 C-22.99 34.34 -23.98 33.68 -25 33 C-25.59174844 29.20205094 -25.21022982 27.37450242 -23.3203125 24.0078125 C-22.23363281 22.58082031 -22.23363281 22.58082031 -21.125 21.125 C-20.40570313 20.15820312 -19.68640625 19.19140625 -18.9453125 18.1953125 C-18.30335938 17.47085937 -17.66140625 16.74640625 -17 16 C-16.34 16 -15.68 16 -15 16 C-14.67 15.01 -14.34 14.02 -14 13 C-12.03533587 11.93224776 -10.03144641 10.93446535 -8 10 C-4.67098753 7.78065836 -4.24976756 6.65316671 -3 3 C-2.34 3 -1.68 3 -1 3 C-0.67 2.01 -0.34 1.02 0 0 Z " fill="#0B234C" transform="translate(307,241)"/>
<path d="M0 0 C0 0.66 0 1.32 0 2 C-0.99 2.495 -0.99 2.495 -2 3 C-2 5.31 -2 7.62 -2 10 C-8.24273068 12.4793824 -13.28299653 13.31985731 -20 13 C-20 12.34 -20 11.68 -20 11 C-22.65228812 9.92474806 -25.28368454 8.90543849 -28 8 C-27.34 9.65 -26.68 11.3 -26 13 C-27.32 11.68 -28.64 10.36 -30 9 C-29.67 8.34 -29.34 7.68 -29 7 C-24.49075934 6.60212582 -21.97757503 8.01121249 -18 10 C-13.92173141 10.50978357 -10.82946555 9.36158775 -7 8 C-6.34 8 -5.68 8 -5 8 C-4.87625 6.865625 -4.7525 5.73125 -4.625 4.5625 C-4.315625 2.7990625 -4.315625 2.7990625 -4 1 C-2 0 -2 0 0 0 Z " fill="#0A2650" transform="translate(254,179)"/>
<path d="M0 0 C-0.86625 0.4021875 -0.86625 0.4021875 -1.75 0.8125 C-4.05396098 1.94184834 -4.05396098 1.94184834 -6.0625 3.625 C-8 5 -8 5 -11 5 C-11.33 5.99 -11.66 6.98 -12 8 C-12.65355469 8.30035156 -13.30710938 8.60070312 -13.98046875 8.91015625 C-16.18531999 9.8183821 -16.18531999 9.8183821 -16.80078125 12.05859375 C-16.96964844 12.84363281 -17.13851562 13.62867188 -17.3125 14.4375 C-18.52949328 18.63612681 -18.52949328 18.63612681 -20.671875 20.29296875 C-22.5625 21.125 -22.5625 21.125 -26 22 C-26.66 21.67 -27.32 21.34 -28 21 C-23.25 17.125 -23.25 17.125 -21 16 C-20.3503125 14.39125 -20.3503125 14.39125 -19.6875 12.75 C-17.16169051 6.6355404 -12.77069016 3.4657232 -6.9375 0.71484375 C-4.54171701 -0.16908425 -2.52882691 -0.31610336 0 0 Z " fill="#0B2752" transform="translate(219,176)"/>
<path d="M0 0 C5.05531868 0.77774134 10.01716284 1.85948394 15 3 C15 4.32 15 5.64 15 7 C9.158256 7.35050464 5.1468192 7.16727335 0 4 C0 2.68 0 1.36 0 0 Z " fill="#F1EFF0" transform="translate(278,455)"/>
<path d="M0 0 C0.721875 0.268125 1.44375 0.53625 2.1875 0.8125 C1.62747584 4.34909092 0.50975676 5.76809692 -2.25 8 C-2.86746094 8.50917969 -3.48492187 9.01835937 -4.12109375 9.54296875 C-5.8125 10.8125 -5.8125 10.8125 -7.8125 11.8125 C-8.07527955 13.78334661 -8.33161588 15.75574415 -8.52734375 17.734375 C-8.8795056 20.30081477 -9.71648302 22.47433045 -10.8125 24.8125 C-11.4725 24.4825 -12.1325 24.1525 -12.8125 23.8125 C-12.668125 22.9875 -12.52375 22.1625 -12.375 21.3125 C-11.7608375 18.06777393 -11.7608375 18.06777393 -11.8046875 15.7734375 C-11.75 13.6875 -11.75 13.6875 -10.8125 9.8125 C-8.87340166 8.40937716 -6.97562466 7.57780452 -4.7578125 6.6875 C-2.29111007 5.57797923 -1.14201998 4.13915997 0.1875 1.8125 C-0.575625 2.3075 -1.33875 2.8025 -2.125 3.3125 C-4.8125 4.8125 -4.8125 4.8125 -7.8125 4.8125 C-3.50480769 -0.23365385 -3.50480769 -0.23365385 0 0 Z " fill="#09234B" transform="translate(301.8125,204.1875)"/>
<path d="M0 0 C4.44842565 1.35924117 6.29735949 3.27221998 9 7 C9.66 7.66 10.32 8.32 11 9 C11 10.32 11 11.64 11 13 C11.66 13 12.32 13 13 13 C12.67 16.96 12.34 20.92 12 25 C11.34 25 10.68 25 10 25 C10.01160156 24.41992188 10.02320313 23.83984375 10.03515625 23.2421875 C10.08726272 18.73125577 10.10189621 14.40758483 9 10 C8.34 9.67 7.68 9.34 7 9 C6.54625 8.236875 6.0925 7.47375 5.625 6.6875 C4.00970739 4.01605453 2.27478681 2.11790496 0 0 Z " fill="#0A234E" transform="translate(300,185)"/>
<path d="M0 0 C-0.28617187 0.54140625 -0.57234375 1.0828125 -0.8671875 1.640625 C-2.1407717 4.29319347 -3.13546958 6.97931482 -4.125 9.75 C-4.65480469 11.22726563 -4.65480469 11.22726563 -5.1953125 12.734375 C-5.46085937 13.48203125 -5.72640625 14.2296875 -6 15 C-8.9375 14.625 -8.9375 14.625 -12 14 C-12.33 13.34 -12.66 12.68 -13 12 C-10.03 12.495 -10.03 12.495 -7 13 C-7.103125 11.96875 -7.20625 10.9375 -7.3125 9.875 C-6.97548288 5.69598769 -5.14620651 0 0 0 Z " fill="#0B264E" transform="translate(276,186)"/>
<path d="M0 0 C0.66 1.32 1.32 2.64 2 4 C1.34 4 0.68 4 0 4 C0.3403125 4.8971875 0.3403125 4.8971875 0.6875 5.8125 C0.790625 6.534375 0.89375 7.25625 1 8 C0.02351983 9.02297922 -0.98131338 10.01904252 -2 11 C-3.20049407 14.10007201 -3.20049407 14.10007201 -4 17 C-4.66 16.67 -5.32 16.34 -6 16 C-5.34 12.7 -4.68 9.4 -4 6 C-3.01 5.67 -2.02 5.34 -1 5 C-0.67 3.35 -0.34 1.7 0 0 Z " fill="#08224D" transform="translate(314,223)"/>
<path d="M0 0 C0.99 0.99 1.98 1.98 3 3 C2.67 3.99 2.34 4.98 2 6 C1.34 6 0.68 6 0 6 C-0.66 8.64 -1.32 11.28 -2 14 C0.97 14.495 0.97 14.495 4 15 C4 15.66 4 16.32 4 17 C1.03 16.01 -1.94 15.02 -5 14 C-4.360625 12.618125 -3.72125 11.23625 -3.0625 9.8125 C-1.60665968 6.55100614 -0.46058716 3.56955049 0 0 Z " fill="#0A2450" transform="translate(277,186)"/>
<path d="M0 0 C0.66 0 1.32 0 2 0 C2 2.31 2 4.62 2 7 C2.66 7 3.32 7 4 7 C4 8.32 4 9.64 4 11 C4.99 11.33 5.98 11.66 7 12 C7.6875 14.0625 7.6875 14.0625 8 16 C3.75667588 14.25274889 2.63319887 12.14059758 0.75 8.109375 C-0.23720136 5.33287118 -0.29151293 2.91512932 0 0 Z " fill="#0B2854" transform="translate(254,181)"/>
<path d="M0 0 C1.32 0.99 2.64 1.98 4 3 C3.01 3.99 2.02 4.98 1 6 C1.99 6.99 2.98 7.98 4 9 C3.34 9 2.68 9 2 9 C1.67 9.99 1.34 10.98 1 12 C-1.89932357 9.60490662 -2.50168276 7.68754757 -3 4 C-2.01 3.34 -1.02 2.68 0 2 C0 1.34 0 0.68 0 0 Z " fill="#093570" transform="translate(251,166)"/>
<path d="M0 0 C2.5839699 0.8839897 4.30507279 2.04922868 6.375 3.8125 C6.045 4.4725 5.715 5.1325 5.375 5.8125 C4.715 5.4825 4.055 5.1525 3.375 4.8125 C3.375 4.1525 3.375 3.4925 3.375 2.8125 C1.93489519 3.06912245 0.4979313 3.34340821 -0.9375 3.625 C-2.13826172 3.85123047 -2.13826172 3.85123047 -3.36328125 4.08203125 C-5.85945587 4.88822236 -6.94922106 5.83302002 -8.625 7.8125 C-9.285 7.4825 -9.945 7.1525 -10.625 6.8125 C-9.41348458 5.60699706 -8.17997111 4.42357253 -6.9375 3.25 C-6.25300781 2.58871094 -5.56851562 1.92742187 -4.86328125 1.24609375 C-2.625 -0.1875 -2.625 -0.1875 0 0 Z " fill="#0D254B" transform="translate(286.625,235.1875)"/>
<path d="M0 0 C2 2 2 2 2 7 C-1.96 7.66 -5.92 8.32 -10 9 C-10 8.34 -10 7.68 -10 7 C-9.36191406 6.82984375 -8.72382813 6.6596875 -8.06640625 6.484375 C-6.82697266 6.12085938 -6.82697266 6.12085938 -5.5625 5.75 C-4.73878906 5.51796875 -3.91507812 5.2859375 -3.06640625 5.046875 C-0.80004532 4.19229321 -0.80004532 4.19229321 -0.21484375 1.890625 C-0.14394531 1.26671875 -0.07304687 0.6428125 0 0 Z " fill="#0C2B5E" transform="translate(285,213)"/>
<path d="M0 0 C0.66 0 1.32 0 2 0 C2 0.66 2 1.32 2 2 C5.63 2.33 9.26 2.66 13 3 C13.66 5.31 14.32 7.62 15 10 C14.34 10 13.68 10 13 10 C12.38125 9.071875 12.38125 9.071875 11.75 8.125 C8.79376694 4.53528842 4.38681606 4.01234217 0 3 C0 2.01 0 1.02 0 0 Z " fill="#091F4F" transform="translate(242,211)"/>
<path d="M0 0 C0.66 0.33 1.32 0.66 2 1 C2 2.32 2 3.64 2 5 C-1.3 5 -4.6 5 -8 5 C-7.67 4.34 -7.34 3.68 -7 3 C-5 2.66666667 -3 2.33333333 -1 2 C-0.67 1.34 -0.34 0.68 0 0 Z " fill="#102A57" transform="translate(281,273)"/>
<path d="M0 0 C0.66 0 1.32 0 2 0 C2 0.66 2 1.32 2 2 C3.134375 2.12375 4.26875 2.2475 5.4375 2.375 C6.613125 2.58125 7.78875 2.7875 9 3 C9.33 3.66 9.66 4.32 10 5 C9.01 6.32 8.02 7.64 7 9 C7 7.68 7 6.36 7 5 C6.13375 4.7834375 6.13375 4.7834375 5.25 4.5625 C3.16666667 4.04166667 1.08333333 3.52083333 -1 3 C-0.67 2.01 -0.34 1.02 0 0 Z " fill="#0E1F40" transform="translate(278,221)"/>
<path d="M0 0 C1.8871875 0.0309375 1.8871875 0.0309375 3.8125 0.0625 C0.80632731 3.06867269 -2.01131598 2.65835316 -6.1875 3.0625 C-6.5175 2.4025 -6.8475 1.7425 -7.1875 1.0625 C-4.43671116 0.14557039 -2.82801087 -0.04636083 0 0 Z " fill="#072862" transform="translate(247.1875,214.9375)"/>
<path d="M0 0 C0.99 0 1.98 0 3 0 C3 1.32 3 2.64 3 4 C0.36 3.67 -2.28 3.34 -5 3 C-5 2.67 -5 2.34 -5 2 C-3.35 2 -1.7 2 0 2 C0 1.34 0 0.68 0 0 Z " fill="#0C3061" transform="translate(266,195)"/>
<path d="M0 0 C1.32 0.99 2.64 1.98 4 3 C-0.75 6 -0.75 6 -3 6 C-3 5.34 -3 4.68 -3 4 C-2.01 3.34 -1.02 2.68 0 2 C0 1.34 0 0.68 0 0 Z " fill="#1B3A6C" transform="translate(251,166)"/>
<path d="M0 0 C0.33 0 0.66 0 1 0 C1 4.29 1 8.58 1 13 C0.67 13 0.34 13 0 13 C0 8.71 0 4.42 0 0 Z " fill="#00060D" transform="translate(260,262)"/>
<path d="M0 0 C0.99 0.33 1.98 0.66 3 1 C1.68 1.33 0.36 1.66 -1 2 C-0.67 1.34 -0.34 0.68 0 0 Z " fill="#FFFFFF" transform="translate(176,458)"/>
<path d="M0 0 C0.33 0 0.66 0 1 0 C1 1.65 1 3.3 1 5 C0.67 5 0.34 5 0 5 C0 3.35 0 1.7 0 0 Z " fill="#000000" transform="translate(260,256)"/>
<path d="" fill="#14304C" transform="translate(0,0)"/>
<path d="" fill="#FFFFFF" transform="translate(0,0)"/>
<path d="" fill="#FFFFFF" transform="translate(0,0)"/>
<path d="" fill="#FFFFFF" transform="translate(0,0)"/>
<path d="" fill="#FFFFFF" transform="translate(0,0)"/>
<path d="" fill="#FFFFFF" transform="translate(0,0)"/>
<path d="" fill="#FFFFFF" transform="translate(0,0)"/>
<path d="" fill="#FFFFFF" transform="translate(0,0)"/>
<path d="" fill="#FFFFFF" transform="translate(0,0)"/>
<path d="" fill="#FFFFFF" transform="translate(0,0)"/>
<path d="" fill="#FFFFFF" transform="translate(0,0)"/>
<path d="" fill="#FFFFFF" transform="translate(0,0)"/>
<path d="" fill="#FFFFFF" transform="translate(0,0)"/>
<path d="" fill="#FFFFFF" transform="translate(0,0)"/>
<path d="" fill="#FFFFFF" transform="translate(0,0)"/>
<path d="" fill="#FFFFFF" transform="translate(0,0)"/>
<path d="" fill="#FFFFFF" transform="translate(0,0)"/>
<path d="" fill="#FFFFFF" transform="translate(0,0)"/>
<path d="" fill="#FFFFFF" transform="translate(0,0)"/>
<path d="" fill="#FFFFFF" transform="translate(0,0)"/>
<path d="" fill="#FFFFFF" transform="translate(0,0)"/>
<path d="" fill="#FFFFFF" transform="translate(0,0)"/>
<path d="" fill="#FFFFFF" transform="translate(0,0)"/>
<path d="" fill="#FFFFFF" transform="translate(0,0)"/>
<path d="" fill="#FFFFFF" transform="translate(0,0)"/>
<path d="" fill="#FFFFFF" transform="translate(0,0)"/>
<path d="" fill="#FFFFFF" transform="translate(0,0)"/>
<path d="" fill="#FFFFFF" transform="translate(0,0)"/>
<path d="" fill="#FFFFFF" transform="translate(0,0)"/>
<path d="" fill="#FFFFFF" transform="translate(0,0)"/>
<path d="" fill="#FFFFFF" transform="translate(0,0)"/>
<path d="" fill="#FFFFFF" transform="translate(0,0)"/>
<path d="" fill="#FFFFFF" transform="translate(0,0)"/>
<path d="" fill="#FFFFFF" transform="translate(0,0)"/>
<path d="" fill="#FFFFFF" transform="translate(0,0)"/>
<path d="" fill="#FFFFFF" transform="translate(0,0)"/>
<path d="" fill="#FFFFFF" transform="translate(0,0)"/>
<path d="" fill="#FFFFFF" transform="translate(0,0)"/>
<path d="" fill="#FFFFFF" transform="translate(0,0)"/>
<path d="" fill="#FFFFFF" transform="translate(0,0)"/>
<path d="" fill="#FFFFFF" transform="translate(0,0)"/>
<path d="" fill="#FFFFFF" transform="translate(0,0)"/>
<path d="" fill="#FFFFFF" transform="translate(0,0)"/>
<path d="" fill="#FFFFFF" transform="translate(0,0)"/>
<path d="" fill="#FFFFFF" transform="translate(0,0)"/>
<path d="" fill="#FFFFFF" transform="translate(0,0)"/>
<path d="" fill="#FFFFFF" transform="translate(0,0)"/>
<path d="" fill="#FFFFFF" transform="translate(0,0)"/>
<path d="" fill="#FFFFFF" transform="translate(0,0)"/>
<path d="" fill="#FFFFFF" transform="translate(0,0)"/>
<path d="" fill="#000000" transform="translate(0,0)"/>
<path d="" fill="#FFFFFF" transform="translate(0,0)"/>
<path d="" fill="#FFFFFF" transform="translate(0,0)"/>
<path d="" fill="#FFFFFF" transform="translate(0,0)"/>
<path d="" fill="#FFFFFF" transform="translate(0,0)"/>
<path d="" fill="#000000" transform="translate(0,0)"/>
<path d="" fill="#000000" transform="translate(0,0)"/>
<path d="" fill="#FFFFFF" transform="translate(0,0)"/>
<path d="" fill="#FFFFFF" transform="translate(0,0)"/>
<path d="" fill="#FFFFFF" transform="translate(0,0)"/>
<path d="" fill="#FFFFFF" transform="translate(0,0)"/>
<path d="" fill="#FFFFFF" transform="translate(0,0)"/>
<path d="" fill="#FFFFFF" transform="translate(0,0)"/>
<path d="" fill="#FFFFFF" transform="translate(0,0)"/>
<path d="" fill="#FFFFFF" transform="translate(0,0)"/>
<path d="" fill="#FFFFFF" transform="translate(0,0)"/>
<path d="" fill="#FFFFFF" transform="translate(0,0)"/>
<path d="" fill="#FFFFFF" transform="translate(0,0)"/>
<path d="" fill="#FFFFFF" transform="translate(0,0)"/>
<path d="" fill="#FFFFFF" transform="translate(0,0)"/>
<path d="" fill="#FFFFFF" transform="translate(0,0)"/>
<path d="" fill="#FFFFFF" transform="translate(0,0)"/>
<path d="" fill="#FFFFFF" transform="translate(0,0)"/>
<path d="" fill="#FFFFFF" transform="translate(0,0)"/>
<path d="" fill="#FFFFFF" transform="translate(0,0)"/>
<path d="" fill="#FFFFFF" transform="translate(0,0)"/>
<path d="" fill="#FFFFFF" transform="translate(0,0)"/>
<path d="" fill="#FFFFFF" transform="translate(0,0)"/>
<path d="" fill="#FFFFFF" transform="translate(0,0)"/>
<path d="" fill="#FFFFFF" transform="translate(0,0)"/>
<path d="" fill="#FFFFFF" transform="translate(0,0)"/>
<path d="" fill="#FFFFFF" transform="translate(0,0)"/>
<path d="" fill="#FFFFFF" transform="translate(0,0)"/>
<path d="" fill="#FFFFFF" transform="translate(0,0)"/>
<path d="" fill="#FFFFFF" transform="translate(0,0)"/>
<path d="" fill="#FFFFFF" transform="translate(0,0)"/>
<path d="" fill="#FFFFFF" transform="translate(0,0)"/>
<path d="" fill="#FFFFFF" transform="translate(0,0)"/>
<path d="" fill="#FFFFFF" transform="translate(0,0)"/>
<path d="" fill="#FFFFFF" transform="translate(0,0)"/>
<path d="" fill="#FFFFFF" transform="translate(0,0)"/>
<path d="" fill="#FFFFFF" transform="translate(0,0)"/>
<path d="" fill="#FFFFFF" transform="translate(0,0)"/>
<path d="" fill="#FFFFFF" transform="translate(0,0)"/>
<path d="" fill="#FFFFFF" transform="translate(0,0)"/>
</svg>
